<svg width="22" height="25" viewBox="0 0 22 25" fill="none" xmlns="http://www.w3.org/2000/svg">
<path d="M11 15.5938C10.6875 15.5938 10.4271 15.4842 10.2188 15.265C10.0104 15.0467 9.90625 14.7917 9.90625 14.5C9.90625 14.1875 10.0104 13.9217 10.2188 13.7025C10.4271 13.4842 10.6875 13.375 11 13.375C11.3125 13.375 11.5729 13.4842 11.7812 13.7025C11.9896 13.9217 12.0938 14.1875 12.0938 14.5C12.0938 14.7917 11.9896 15.0467 11.7812 15.265C11.5729 15.4842 11.3125 15.5938 11 15.5938ZM6 15.5938C5.6875 15.5938 5.42708 15.4842 5.21875 15.265C5.01042 15.0467 4.90625 14.7917 4.90625 14.5C4.90625 14.1875 5.01042 13.9217 5.21875 13.7025C5.42708 13.4842 5.6875 13.375 6 13.375C6.3125 13.375 6.57292 13.4842 6.78125 13.7025C6.98958 13.9217 7.09375 14.1875 7.09375 14.5C7.09375 14.7917 6.98958 15.0467 6.78125 15.265C6.57292 15.4842 6.3125 15.5938 6 15.5938ZM16 15.5938C15.6875 15.5938 15.4271 15.4842 15.2188 15.265C15.0104 15.0467 14.9062 14.7917 14.9062 14.5C14.9062 14.1875 15.0104 13.9217 15.2188 13.7025C15.4271 13.4842 15.6875 13.375 16 13.375C16.3125 13.375 16.5729 13.4842 16.7812 13.7025C16.9896 13.9217 17.0938 14.1875 17.0938 14.5C17.0938 14.7917 16.9896 15.0467 16.7812 15.265C16.5729 15.4842 16.3125 15.5938 16 15.5938ZM11 20.5C10.6875 20.5 10.4271 20.3908 10.2188 20.1725C10.0104 19.9533 9.90625 19.6979 9.90625 19.4062C9.90625 19.0938 10.0104 18.8283 10.2188 18.61C10.4271 18.3908 10.6875 18.2812 11 18.2812C11.3125 18.2812 11.5729 18.3908 11.7812 18.61C11.9896 18.8283 12.0938 19.0938 12.0938 19.4062C12.0938 19.6979 11.9896 19.9533 11.7812 20.1725C11.5729 20.3908 11.3125 20.5 11 20.5ZM6 20.5C5.6875 20.5 5.42708 20.3908 5.21875 20.1725C5.01042 19.9533 4.90625 19.6979 4.90625 19.4062C4.90625 19.0938 5.01042 18.8283 5.21875 18.61C5.42708 18.3908 5.6875 18.2812 6 18.2812C6.3125 18.2812 6.57292 18.3908 6.78125 18.61C6.98958 18.8283 7.09375 19.0938 7.09375 19.4062C7.09375 19.6979 6.98958 19.9533 6.78125 20.1725C6.57292 20.3908 6.3125 20.5 6 20.5ZM16 20.5C15.6875 20.5 15.4271 20.3908 15.2188 20.1725C15.0104 19.9533 14.9062 19.6979 14.9062 19.4062C14.9062 19.0938 15.0104 18.8283 15.2188 18.61C15.4271 18.3908 15.6875 18.2812 16 18.2812C16.3125 18.2812 16.5729 18.3908 16.7812 18.61C16.9896 18.8283 17.0938 19.0938 17.0938 19.4062C17.0938 19.6979 16.9896 19.9533 16.7812 20.1725C16.5729 20.3908 16.3125 20.5 16 20.5ZM2.625 24.875C2 24.875 1.46875 24.6562 1.03125 24.2188C0.59375 23.7812 0.375 23.25 0.375 22.625V5.875C0.375 5.25 0.59375 4.71875 1.03125 4.28125C1.46875 3.84375 2 3.625 2.625 3.625H4.375V1.9375C4.375 1.66667 4.46333 1.4375 4.64 1.25C4.8175 1.0625 5.04167 0.96875 5.3125 0.96875C5.60417 0.96875 5.83833 1.0625 6.015 1.25C6.1925 1.4375 6.28125 1.66667 6.28125 1.9375V3.625H15.75V1.90625C15.75 1.65625 15.8437 1.4375 16.0312 1.25C16.2188 1.0625 16.4375 0.96875 16.6875 0.96875C16.9583 0.96875 17.1821 1.0625 17.3587 1.25C17.5362 1.4375 17.625 1.65625 17.625 1.90625V3.625H19.375C20 3.625 20.5312 3.84375 20.9688 4.28125C21.4062 4.71875 21.625 5.25 21.625 5.875V22.625C21.625 23.25 21.4062 23.7812 20.9688 24.2188C20.5312 24.6562 20 24.875 19.375 24.875H2.625ZM2.625 23H19.375C19.4792 23 19.5679 22.9638 19.6413 22.8913C19.7138 22.8179 19.75 22.7292 19.75 22.625V10.875H2.25V22.625C2.25 22.7292 2.28667 22.8179 2.36 22.8913C2.4325 22.9638 2.52083 23 2.625 23Z" fill="#398AB9"/>
</svg>
