<svg width="19" height="21" viewBox="0 0 19 21" fill="none" xmlns="http://www.w3.org/2000/svg">
<path d="M2 18.75H6.1875V11.3125H12.8125V18.75H17V7.5L9.5 1.84375L2 7.5V18.75ZM2 20.625C1.47917 20.625 1.03667 20.4425 0.6725 20.0775C0.3075 19.7133 0.125 19.2708 0.125 18.75V7.5C0.125 7.20833 0.1925 6.92708 0.3275 6.65625C0.463334 6.38542 0.645833 6.16667 0.875 6L8.375 0.34375C8.54167 0.21875 8.71875 0.13 8.90625 0.0774997C9.09375 0.0258331 9.29167 0 9.5 0C9.70833 0 9.90625 0.0258331 10.0938 0.0774997C10.2813 0.13 10.4583 0.21875 10.625 0.34375L18.125 6C18.3542 6.16667 18.5362 6.38542 18.6712 6.65625C18.8071 6.92708 18.875 7.20833 18.875 7.5V18.75C18.875 19.2708 18.6925 19.7133 18.3275 20.0775C17.9633 20.4425 17.5208 20.625 17 20.625H10.9375V13.1875H8.0625V20.625H2Z" fill="#686868"/>
</svg>
