<svg width="20" height="20" viewBox="0 0 20 20" fill="none" xmlns="http://www.w3.org/2000/svg">
<path d="M10 9.625C8.79167 9.625 7.76042 9.1925 6.90625 8.3275C6.05208 7.46333 5.625 6.4375 5.625 5.25C5.625 4.04167 6.05208 3.01042 6.90625 2.15625C7.76042 1.30208 8.79167 0.875 10 0.875C11.2083 0.875 12.2396 1.30208 13.0938 2.15625C13.9479 3.01042 14.375 4.04167 14.375 5.25C14.375 6.4375 13.9479 7.46333 13.0938 8.3275C12.2396 9.1925 11.2083 9.625 10 9.625ZM17.4688 19.125H2.53125C1.98958 19.125 1.53667 18.9429 1.1725 18.5788C0.8075 18.2138 0.625 17.7708 0.625 17.25V16.3438C0.625 15.7396 0.791667 15.1771 1.125 14.6563C1.45833 14.1354 1.90625 13.7292 2.46875 13.4375C3.69792 12.8333 4.94292 12.38 6.20375 12.0775C7.46375 11.7758 8.72917 11.625 10 11.625C11.2708 11.625 12.5367 11.7758 13.7975 12.0775C15.0575 12.38 16.3021 12.8333 17.5312 13.4375C18.0938 13.7292 18.5417 14.1354 18.875 14.6563C19.2083 15.1771 19.375 15.7396 19.375 16.3438V17.25C19.375 17.7708 19.1925 18.2138 18.8275 18.5788C18.4633 18.9429 18.0104 19.125 17.4688 19.125ZM2.5 17.25H17.5V16.3438C17.5 16.0938 17.4271 15.8646 17.2812 15.6562C17.1354 15.4479 16.9375 15.2708 16.6875 15.125C15.6042 14.6042 14.5054 14.2029 13.3913 13.9213C12.2762 13.6404 11.1458 13.5 10 13.5C8.85417 13.5 7.72375 13.6404 6.60875 13.9213C5.49458 14.2029 4.39583 14.6042 3.3125 15.125C3.0625 15.2708 2.86458 15.4479 2.71875 15.6562C2.57292 15.8646 2.5 16.0938 2.5 16.3438V17.25ZM10 7.75C10.6875 7.75 11.2762 7.505 11.7663 7.015C12.2554 6.52583 12.5 5.9375 12.5 5.25C12.5 4.5625 12.2554 3.97375 11.7663 3.48375C11.2762 2.99458 10.6875 2.75 10 2.75C9.3125 2.75 8.72417 2.99458 8.235 3.48375C7.745 3.97375 7.5 4.5625 7.5 5.25C7.5 5.9375 7.745 6.52583 8.235 7.015C8.72417 7.505 9.3125 7.75 10 7.75Z" fill="#686868"/>
</svg>
