<svg width="20" height="20" viewBox="0 0 20 20" fill="none" xmlns="http://www.w3.org/2000/svg">
<path d="M10 9.625C8.79167 9.625 7.76042 9.19792 6.90625 8.34375C6.05208 7.48958 5.625 6.45833 5.625 5.25C5.625 4.04167 6.05208 3.01042 6.90625 2.15625C7.76042 1.30208 8.79167 0.875 10 0.875C11.2083 0.875 12.2396 1.30208 13.0938 2.15625C13.9479 3.01042 14.375 4.04167 14.375 5.25C14.375 6.45833 13.9479 7.48958 13.0938 8.34375C12.2396 9.19792 11.2083 9.625 10 9.625ZM2.53125 19.125C1.98958 19.125 1.53667 18.9429 1.1725 18.5788C0.8075 18.2138 0.625 17.7708 0.625 17.25V16.3438C0.625 15.7396 0.791667 15.1771 1.125 14.6563C1.45833 14.1354 1.90625 13.7292 2.46875 13.4375C3.69792 12.8333 4.94292 12.38 6.20375 12.0775C7.46375 11.7758 8.72917 11.625 10 11.625C11.2708 11.625 12.5367 11.7758 13.7975 12.0775C15.0575 12.38 16.3021 12.8333 17.5312 13.4375C18.0938 13.7292 18.5417 14.1354 18.875 14.6563C19.2083 15.1771 19.375 15.7396 19.375 16.3438V17.25C19.375 17.7708 19.1925 18.2138 18.8275 18.5788C18.4633 18.9429 18.0104 19.125 17.4688 19.125H2.53125Z" fill="#398AB9"/>
</svg>
