<svg width="26" height="22" viewBox="0 0 26 22" fill="none" xmlns="http://www.w3.org/2000/svg">
<path d="M4.34375 21.9375C3.71875 21.9375 3.1875 21.7188 2.75 21.2812C2.3125 20.8438 2.09375 20.3125 2.09375 19.6875V9.6875C1.57292 9.27083 1.1875 8.73417 0.9375 8.0775C0.6875 7.42167 0.6875 6.70833 0.9375 5.9375L2.1875 1.8125C2.35417 1.29167 2.64083 0.869583 3.0475 0.54625C3.45333 0.22375 3.92708 0.0625 4.46875 0.0625H21.5312C22.0938 0.0625 22.5729 0.21875 22.9688 0.53125C23.3646 0.84375 23.6458 1.26042 23.8125 1.78125L25.0937 5.9375C25.3437 6.70833 25.3437 7.42167 25.0937 8.0775C24.8437 8.73417 24.4687 9.28125 23.9687 9.71875V19.6875C23.9687 20.3125 23.75 20.8438 23.3125 21.2812C22.875 21.7188 22.3333 21.9375 21.6875 21.9375H4.34375ZM15.7813 8.8125C16.4479 8.8125 16.9533 8.60417 17.2975 8.1875C17.6408 7.77083 17.7812 7.32292 17.7188 6.84375L16.9688 1.9375H13.9688V6.875C13.9688 7.39583 14.1458 7.84875 14.5 8.23375C14.8542 8.61958 15.2813 8.8125 15.7813 8.8125ZM10.1563 8.8125C10.7188 8.8125 11.1825 8.61958 11.5475 8.23375C11.9117 7.84875 12.0938 7.39583 12.0938 6.875V1.9375H9.0625L8.3125 6.875C8.25 7.33333 8.39083 7.77083 8.735 8.1875C9.07833 8.60417 9.55208 8.8125 10.1563 8.8125ZM4.59375 8.8125C5.05208 8.8125 5.44792 8.65125 5.78125 8.32875C6.11458 8.00542 6.32292 7.60417 6.40625 7.125L7.125 1.9375H4.46875C4.34375 1.9375 4.23958 1.96875 4.15625 2.03125C4.07292 2.09375 4.01042 2.1875 3.96875 2.3125L2.78125 6.375C2.61458 6.89583 2.6875 7.43208 3 7.98375C3.3125 8.53625 3.84375 8.8125 4.59375 8.8125ZM21.4687 8.8125C22.1354 8.8125 22.6512 8.54708 23.0163 8.01625C23.3804 7.48458 23.4688 6.9375 23.2812 6.375L22 2.28125C21.9583 2.15625 21.9008 2.0675 21.8275 2.015C21.755 1.96333 21.6458 1.9375 21.5 1.9375H18.9062L19.6563 7.125C19.7188 7.60417 19.9167 8.00542 20.25 8.32875C20.5833 8.65125 20.9896 8.8125 21.4687 8.8125Z" fill="#398AB9"/>
</svg>
